<svg xmlns="http://www.w3.org/2000/svg" xmlns:xlink="http://www.w3.org/1999/xlink" width="1024" zoomAndPan="magnify" viewBox="0 0 768 576" height="768" preserveAspectRatio="xMidYMid meet" version="1.2"><defs><clipPath id="03b7855553"><path d="M 243.261719 132.367188 L 266.761719 132.367188 L 266.761719 156.203125 L 243.261719 156.203125 Z M 243.261719 132.367188 "/></clipPath><clipPath id="791b8cea8f"><path d="M 274.085938 144.285156 L 329.585938 144.285156 L 329.585938 195.285156 L 274.085938 195.285156 Z M 274.085938 144.285156 "/></clipPath><clipPath id="244b3e7a2d"><path d="M 282 144.285156 L 287 144.285156 L 287 149 L 282 149 Z M 282 144.285156 "/></clipPath><clipPath id="21df67393f"><path d="M 274.085938 152 L 279 152 L 279 170 L 274.085938 170 Z M 274.085938 152 "/></clipPath><clipPath id="ea0db80d93"><path d="M 299 191 L 304 191 L 304 195.285156 L 299 195.285156 Z M 299 191 "/></clipPath><clipPath id="17595bcab5"><path d="M 308 144.285156 L 313 144.285156 L 313 149 L 308 149 Z M 308 144.285156 "/></clipPath></defs><g id="daf2da00c2"><g style="fill:#bdadad;fill-opacity:1;"><g transform="translate(57.600002, 348.942541)"><path style="stroke:none" d="M 158.53125 -165.03125 L 158.53125 -189.1875 L 182.375 -189.1875 L 182.375 -165.03125 Z M 158.53125 -192.59375 L 158.53125 -216.75 L 182.375 -216.75 L 182.375 -192.59375 Z M 131.59375 -27.5625 L 131.59375 -51.703125 L 155.4375 -51.703125 L 155.4375 -27.5625 Z M 131.59375 -55.109375 L 131.59375 -79.265625 L 155.4375 -79.265625 L 155.4375 -55.109375 Z M 131.59375 -82.671875 L 131.59375 -106.828125 L 155.4375 -106.828125 L 155.4375 -82.671875 Z M 131.59375 -109.921875 L 131.59375 -134.078125 L 155.4375 -134.078125 L 155.4375 -109.921875 Z M 131.59375 -137.484375 L 131.59375 -161.625 L 155.4375 -161.625 L 155.4375 -137.484375 Z M 131.59375 -165.03125 L 131.59375 -189.1875 L 155.4375 -189.1875 L 155.4375 -165.03125 Z M 131.59375 -192.59375 L 131.59375 -216.75 L 155.4375 -216.75 L 155.4375 -192.59375 Z M 104.34375 0 L 104.34375 -24.15625 L 128.1875 -24.15625 L 128.1875 0 Z M 104.34375 -27.5625 L 104.34375 -51.703125 L 128.1875 -51.703125 L 128.1875 -27.5625 Z M 104.34375 -55.109375 L 104.34375 -79.265625 L 128.1875 -79.265625 L 128.1875 -55.109375 Z M 104.34375 -82.671875 L 104.34375 -106.828125 L 128.1875 -106.828125 L 128.1875 -82.671875 Z M 104.34375 -109.921875 L 104.34375 -134.078125 L 128.1875 -134.078125 L 128.1875 -109.921875 Z M 104.34375 -137.484375 L 104.34375 -161.625 L 128.1875 -161.625 L 128.1875 -137.484375 Z M 104.34375 -165.03125 L 104.34375 -189.1875 L 128.1875 -189.1875 L 128.1875 -165.03125 Z M 104.34375 -192.59375 L 104.34375 -216.75 L 128.1875 -216.75 L 128.1875 -192.59375 Z M 77.09375 0 L 77.09375 -24.15625 L 100.9375 -24.15625 L 100.9375 0 Z M 77.09375 -27.5625 L 77.09375 -51.703125 L 100.9375 -51.703125 L 100.9375 -27.5625 Z M 77.09375 -165.03125 L 77.09375 -189.1875 L 100.9375 -189.1875 L 100.9375 -165.03125 Z M 77.09375 -192.59375 L 77.09375 -216.75 L 100.9375 -216.75 L 100.9375 -192.59375 Z M 50.15625 0 L 50.15625 -24.15625 L 74 -24.15625 L 74 0 Z M 50.15625 -27.5625 L 50.15625 -51.703125 L 74 -51.703125 L 74 -27.5625 Z M 50.15625 -55.109375 L 50.15625 -79.265625 L 74 -79.265625 L 74 -55.109375 Z M 50.15625 -165.03125 L 50.15625 -189.1875 L 74 -189.1875 L 74 -165.03125 Z M 50.15625 -192.59375 L 50.15625 -216.75 L 74 -216.75 L 74 -192.59375 Z M 22.90625 -27.5625 L 22.90625 -51.703125 L 46.75 -51.703125 L 46.75 -27.5625 Z M 22.90625 -55.109375 L 22.90625 -79.265625 L 46.75 -79.265625 L 46.75 -55.109375 Z M 22.90625 -55.109375 "/></g></g><g clip-rule="nonzero" clip-path="url(#03b7855553)"><path style=" stroke:none;fill-rule:nonzero;fill:#bdadad;fill-opacity:1;" d="M 243.261719 132.367188 L 266.761719 132.367188 L 266.761719 156.238281 L 243.261719 156.238281 Z M 243.261719 132.367188 "/></g><g clip-rule="nonzero" clip-path="url(#791b8cea8f)"><path style=" stroke:none;fill-rule:nonzero;fill:#2e1b5b;fill-opacity:1;" d="M 325.058594 152.796875 L 325.058594 148.546875 L 320.808594 148.546875 L 320.808594 144.300781 L 308.066406 144.300781 L 308.066406 148.546875 L 303.820312 148.546875 L 303.820312 152.796875 L 299.574219 152.796875 L 299.574219 148.546875 L 295.324219 148.546875 L 295.324219 144.300781 L 282.582031 144.300781 L 282.582031 148.546875 L 278.335938 148.546875 L 278.335938 152.796875 L 274.085938 152.796875 L 274.085938 169.785156 L 278.335938 169.785156 L 278.335938 174.03125 L 282.582031 174.03125 L 282.582031 178.28125 L 286.828125 178.28125 L 286.828125 182.527344 L 291.078125 182.527344 L 291.078125 186.777344 L 295.324219 186.777344 L 295.324219 191.023438 L 299.574219 191.023438 L 299.574219 195.269531 L 303.820312 195.269531 L 303.820312 191.023438 L 308.066406 191.023438 L 308.066406 186.777344 L 312.316406 186.777344 L 312.316406 182.527344 L 316.5625 182.527344 L 316.5625 178.28125 L 320.808594 178.28125 L 320.808594 174.03125 L 325.058594 174.03125 L 325.058594 169.785156 L 329.304688 169.785156 L 329.304688 152.796875 Z M 325.058594 152.796875 "/><path style=" stroke:none;fill-rule:nonzero;fill:#695d8b;fill-opacity:1;" d="M 325.058594 152.796875 L 325.058594 148.546875 L 320.808594 148.546875 L 320.808594 144.300781 L 308.066406 144.300781 L 308.066406 148.546875 L 303.820312 148.546875 L 303.820312 152.796875 L 299.574219 152.796875 L 299.574219 148.546875 L 295.324219 148.546875 L 295.324219 144.300781 L 282.582031 144.300781 L 282.582031 148.546875 L 278.335938 148.546875 L 278.335938 152.796875 L 274.085938 152.796875 L 274.085938 169.785156 L 278.335938 169.785156 L 278.335938 174.03125 L 282.582031 174.03125 L 282.582031 178.28125 L 286.828125 178.28125 L 286.828125 182.527344 L 291.078125 182.527344 L 291.078125 186.777344 L 295.324219 186.777344 L 295.324219 191.023438 L 299.574219 191.023438 L 299.574219 195.269531 L 303.820312 195.269531 L 303.820312 191.023438 L 308.066406 191.023438 L 308.066406 186.777344 L 312.316406 186.777344 L 312.316406 182.527344 L 316.5625 182.527344 L 316.5625 178.28125 L 320.808594 178.28125 L 320.808594 174.03125 L 325.058594 174.03125 L 325.058594 169.785156 L 329.304688 169.785156 L 329.304688 152.796875 Z M 325.058594 152.796875 "/></g><g clip-rule="nonzero" clip-path="url(#244b3e7a2d)"><path style=" stroke:none;fill-rule:nonzero;fill:#2e1b5b;fill-opacity:1;" d="M 282.582031 144.300781 L 286.828125 144.300781 L 286.828125 148.546875 L 282.582031 148.546875 Z M 282.582031 144.300781 "/></g><path style=" stroke:none;fill-rule:nonzero;fill:#2e1b5b;fill-opacity:1;" d="M 278.335938 148.546875 L 282.582031 148.546875 L 282.582031 152.796875 L 278.335938 152.796875 Z M 278.335938 148.546875 "/><g clip-rule="nonzero" clip-path="url(#21df67393f)"><path style=" stroke:none;fill-rule:nonzero;fill:#2e1b5b;fill-opacity:1;" d="M 274.085938 152.796875 L 278.335938 152.796875 L 278.335938 169.785156 L 274.085938 169.785156 Z M 274.085938 152.796875 "/></g><path style=" stroke:none;fill-rule:nonzero;fill:#2e1b5b;fill-opacity:1;" d="M 278.335938 169.785156 L 282.582031 169.785156 L 282.582031 174.03125 L 278.335938 174.03125 Z M 278.335938 169.785156 "/><path style=" stroke:none;fill-rule:nonzero;fill:#2e1b5b;fill-opacity:1;" d="M 282.582031 174.03125 L 286.828125 174.03125 L 286.828125 178.28125 L 282.582031 178.28125 Z M 282.582031 174.03125 "/><path style=" stroke:none;fill-rule:nonzero;fill:#2e1b5b;fill-opacity:1;" d="M 286.828125 178.28125 L 291.078125 178.28125 L 291.078125 182.527344 L 286.828125 182.527344 Z M 286.828125 178.28125 "/><path style=" stroke:none;fill-rule:nonzero;fill:#2e1b5b;fill-opacity:1;" d="M 291.078125 182.527344 L 295.324219 182.527344 L 295.324219 186.777344 L 291.078125 186.777344 Z M 291.078125 182.527344 "/><path style=" stroke:none;fill-rule:nonzero;fill:#2e1b5b;fill-opacity:1;" d="M 295.324219 186.777344 L 299.574219 186.777344 L 299.574219 191.023438 L 295.324219 191.023438 Z M 295.324219 186.777344 "/><g clip-rule="nonzero" clip-path="url(#ea0db80d93)"><path style=" stroke:none;fill-rule:nonzero;fill:#2e1b5b;fill-opacity:1;" d="M 299.574219 191.023438 L 303.820312 191.023438 L 303.820312 195.269531 L 299.574219 195.269531 Z M 299.574219 191.023438 "/></g><path style=" stroke:none;fill-rule:nonzero;fill:#2e1b5b;fill-opacity:1;" d="M 303.820312 148.546875 L 308.066406 148.546875 L 308.066406 152.796875 L 303.820312 152.796875 Z M 303.820312 148.546875 "/><g clip-rule="nonzero" clip-path="url(#17595bcab5)"><path style=" stroke:none;fill-rule:nonzero;fill:#2e1b5b;fill-opacity:1;" d="M 308.066406 144.300781 L 312.316406 144.300781 L 312.316406 148.546875 L 308.066406 148.546875 Z M 308.066406 144.300781 "/></g><path style=" stroke:none;fill-rule:nonzero;fill:#8f2a2a;fill-opacity:1;" d="M 286.828125 174.03125 L 291.078125 174.03125 L 291.078125 178.28125 L 286.828125 178.28125 Z M 286.828125 174.03125 "/><path style=" stroke:none;fill-rule:nonzero;fill:#8f2a2a;fill-opacity:1;" d="M 291.078125 178.28125 L 295.324219 178.28125 L 295.324219 182.527344 L 291.078125 182.527344 Z M 291.078125 178.28125 "/><path style=" stroke:none;fill-rule:nonzero;fill:#8f2a2a;fill-opacity:1;" d="M 295.324219 182.527344 L 299.574219 182.527344 L 299.574219 186.777344 L 295.324219 186.777344 Z M 295.324219 182.527344 "/><path style=" stroke:none;fill-rule:nonzero;fill:#8f2a2a;fill-opacity:1;" d="M 299.574219 186.777344 L 303.820312 186.777344 L 303.820312 191.023438 L 299.574219 191.023438 Z M 299.574219 186.777344 "/><path style=" stroke:none;fill-rule:nonzero;fill:#8f2a2a;fill-opacity:1;" d="M 282.582031 148.546875 L 286.828125 148.546875 L 286.828125 152.796875 L 282.582031 152.796875 Z M 282.582031 148.546875 "/><path style=" stroke:none;fill-rule:nonzero;fill:#8f2a2a;fill-opacity:1;" d="M 286.828125 161.289062 L 286.828125 157.042969 L 282.582031 157.042969 L 282.582031 152.796875 L 278.335938 152.796875 L 278.335938 169.785156 L 282.582031 169.785156 L 282.582031 174.03125 L 286.828125 174.03125 L 286.828125 165.539062 L 282.582031 165.539062 L 282.582031 161.289062 Z M 286.828125 161.289062 "/><path style=" stroke:none;fill-rule:nonzero;fill:#8f2a2a;fill-opacity:1;" d="M 291.078125 169.785156 L 295.324219 169.785156 L 295.324219 174.03125 L 291.078125 174.03125 Z M 291.078125 169.785156 "/><path style=" stroke:none;fill-rule:nonzero;fill:#8f2a2a;fill-opacity:1;" d="M 295.324219 165.539062 L 299.574219 165.539062 L 299.574219 169.785156 L 295.324219 169.785156 Z M 295.324219 165.539062 "/><path style=" stroke:none;fill-rule:nonzero;fill:#8f2a2a;fill-opacity:1;" d="M 299.574219 178.28125 L 303.820312 178.28125 L 303.820312 182.527344 L 299.574219 182.527344 Z M 299.574219 178.28125 "/><path style=" stroke:none;fill-rule:nonzero;fill:#8f2a2a;fill-opacity:1;" d="M 295.324219 174.03125 L 299.574219 174.03125 L 299.574219 178.28125 L 295.324219 178.28125 Z M 295.324219 174.03125 "/><path style=" stroke:none;fill-rule:nonzero;fill:#8f2a2a;fill-opacity:1;" d="M 308.066406 174.03125 L 312.316406 174.03125 L 312.316406 178.28125 L 308.066406 178.28125 Z M 308.066406 174.03125 "/><path style=" stroke:none;fill-rule:nonzero;fill:#8f2a2a;fill-opacity:1;" d="M 303.820312 182.527344 L 308.066406 182.527344 L 308.066406 186.777344 L 303.820312 186.777344 Z M 303.820312 182.527344 "/><path style=" stroke:none;fill-rule:nonzero;fill:#f8fffb;fill-opacity:1;" d="M 286.828125 157.042969 L 291.078125 157.042969 L 291.078125 161.289062 L 286.828125 161.289062 Z M 286.828125 157.042969 "/><path style=" stroke:none;fill-rule:nonzero;fill:#f8fffb;fill-opacity:1;" d="M 282.582031 161.289062 L 286.828125 161.289062 L 286.828125 165.539062 L 282.582031 165.539062 Z M 282.582031 161.289062 "/><path style=" stroke:none;fill-rule:nonzero;fill:#f8fffb;fill-opacity:1;" d="M 282.582031 152.796875 L 286.828125 152.796875 L 286.828125 157.042969 L 282.582031 157.042969 Z M 282.582031 152.796875 "/><path style=" stroke:none;fill-rule:nonzero;fill:#bdadad;fill-opacity:1;" d="M 286.828125 152.796875 L 295.324219 152.796875 L 295.324219 157.042969 L 286.828125 157.042969 Z M 286.828125 152.796875 "/><path style=" stroke:none;fill-rule:nonzero;fill:#bdadad;fill-opacity:1;" d="M 282.582031 157.042969 L 286.828125 157.042969 L 286.828125 161.289062 L 282.582031 161.289062 Z M 282.582031 157.042969 "/><path style=" stroke:none;fill-rule:nonzero;fill:#bdadad;fill-opacity:1;" d="M 286.828125 169.785156 L 295.324219 169.785156 L 295.324219 165.539062 L 291.078125 165.539062 L 291.078125 161.289062 L 286.828125 161.289062 Z M 286.828125 169.785156 "/><g style="fill:#bdadad;fill-opacity:1;"><g transform="translate(346.698648, 346.676946)"><path style="stroke:none" d="M 161.75 0 L 161.75 -21.203125 L 182.671875 -21.203125 L 182.671875 0 Z M 161.75 -24.1875 L 161.75 -45.390625 L 182.671875 -45.390625 L 182.671875 -24.1875 Z M 161.75 -48.390625 L 161.75 -69.59375 L 182.671875 -69.59375 L 182.671875 -48.390625 Z M 161.75 -72.578125 L 161.75 -93.78125 L 182.671875 -93.78125 L 182.671875 -72.578125 Z M 161.75 -96.5 L 161.75 -117.703125 L 182.671875 -117.703125 L 182.671875 -96.5 Z M 161.75 -120.703125 L 161.75 -141.90625 L 182.671875 -141.90625 L 182.671875 -120.703125 Z M 161.75 -144.890625 L 161.75 -166.09375 L 182.671875 -166.09375 L 182.671875 -144.890625 Z M 161.75 -169.09375 L 161.75 -190.296875 L 182.671875 -190.296875 L 182.671875 -169.09375 Z M 137.828125 0 L 137.828125 -21.203125 L 158.75 -21.203125 L 158.75 0 Z M 137.828125 -24.1875 L 137.828125 -45.390625 L 158.75 -45.390625 L 158.75 -24.1875 Z M 137.828125 -48.390625 L 137.828125 -69.59375 L 158.75 -69.59375 L 158.75 -48.390625 Z M 137.828125 -72.578125 L 137.828125 -93.78125 L 158.75 -93.78125 L 158.75 -72.578125 Z M 137.828125 -96.5 L 137.828125 -117.703125 L 158.75 -117.703125 L 158.75 -96.5 Z M 137.828125 -120.703125 L 137.828125 -141.90625 L 158.75 -141.90625 L 158.75 -120.703125 Z M 137.828125 -144.890625 L 137.828125 -166.09375 L 158.75 -166.09375 L 158.75 -144.890625 Z M 137.828125 -169.09375 L 137.828125 -190.296875 L 158.75 -190.296875 L 158.75 -169.09375 Z M 114.171875 -48.390625 L 114.171875 -69.59375 L 135.109375 -69.59375 L 135.109375 -48.390625 Z M 114.171875 -72.578125 L 114.171875 -93.78125 L 135.109375 -93.78125 L 135.109375 -72.578125 Z M 90.25 -72.578125 L 90.25 -93.78125 L 111.1875 -93.78125 L 111.1875 -72.578125 Z M 90.25 -96.5 L 90.25 -117.703125 L 111.1875 -117.703125 L 111.1875 -96.5 Z M 66.328125 -96.5 L 66.328125 -117.703125 L 87.265625 -117.703125 L 87.265625 -96.5 Z M 66.328125 -120.703125 L 66.328125 -141.90625 L 87.265625 -141.90625 L 87.265625 -120.703125 Z M 42.671875 0 L 42.671875 -21.203125 L 63.609375 -21.203125 L 63.609375 0 Z M 42.671875 -24.1875 L 42.671875 -45.390625 L 63.609375 -45.390625 L 63.609375 -24.1875 Z M 42.671875 -48.390625 L 42.671875 -69.59375 L 63.609375 -69.59375 L 63.609375 -48.390625 Z M 42.671875 -72.578125 L 42.671875 -93.78125 L 63.609375 -93.78125 L 63.609375 -72.578125 Z M 42.671875 -96.5 L 42.671875 -117.703125 L 63.609375 -117.703125 L 63.609375 -96.5 Z M 42.671875 -120.703125 L 42.671875 -141.90625 L 63.609375 -141.90625 L 63.609375 -120.703125 Z M 42.671875 -144.890625 L 42.671875 -166.09375 L 63.609375 -166.09375 L 63.609375 -144.890625 Z M 42.671875 -169.09375 L 42.671875 -190.296875 L 63.609375 -190.296875 L 63.609375 -169.09375 Z M 18.75 0 L 18.75 -21.203125 L 39.6875 -21.203125 L 39.6875 0 Z M 18.75 -24.1875 L 18.75 -45.390625 L 39.6875 -45.390625 L 39.6875 -24.1875 Z M 18.75 -48.390625 L 18.75 -69.59375 L 39.6875 -69.59375 L 39.6875 -48.390625 Z M 18.75 -72.578125 L 18.75 -93.78125 L 39.6875 -93.78125 L 39.6875 -72.578125 Z M 18.75 -96.5 L 18.75 -117.703125 L 39.6875 -117.703125 L 39.6875 -96.5 Z M 18.75 -120.703125 L 18.75 -141.90625 L 39.6875 -141.90625 L 39.6875 -120.703125 Z M 18.75 -144.890625 L 18.75 -166.09375 L 39.6875 -166.09375 L 39.6875 -144.890625 Z M 18.75 -169.09375 L 18.75 -190.296875 L 39.6875 -190.296875 L 39.6875 -169.09375 Z M 18.75 -169.09375 "/></g></g><g style="fill:#bdadad;fill-opacity:1;"><g transform="translate(550.312334, 346.676946)"><path style="stroke:none" d="M 116.078125 -24.1875 L 116.078125 -45.390625 L 137.015625 -45.390625 L 137.015625 -24.1875 Z M 116.078125 -48.390625 L 116.078125 -69.59375 L 137.015625 -69.59375 L 137.015625 -48.390625 Z M 116.078125 -72.578125 L 116.078125 -93.78125 L 137.015625 -93.78125 L 137.015625 -72.578125 Z M 116.078125 -96.5 L 116.078125 -117.703125 L 137.015625 -117.703125 L 137.015625 -96.5 Z M 116.078125 -144.890625 L 116.078125 -166.09375 L 137.015625 -166.09375 L 137.015625 -144.890625 Z M 116.078125 -169.09375 L 116.078125 -190.296875 L 137.015625 -190.296875 L 137.015625 -169.09375 Z M 92.15625 0 L 92.15625 -21.203125 L 113.09375 -21.203125 L 113.09375 0 Z M 92.15625 -24.1875 L 92.15625 -45.390625 L 113.09375 -45.390625 L 113.09375 -24.1875 Z M 92.15625 -48.390625 L 92.15625 -69.59375 L 113.09375 -69.59375 L 113.09375 -48.390625 Z M 92.15625 -72.578125 L 92.15625 -93.78125 L 113.09375 -93.78125 L 113.09375 -72.578125 Z M 92.15625 -96.5 L 92.15625 -117.703125 L 113.09375 -117.703125 L 113.09375 -96.5 Z M 92.15625 -144.890625 L 92.15625 -166.09375 L 113.09375 -166.09375 L 113.09375 -144.890625 Z M 92.15625 -169.09375 L 92.15625 -190.296875 L 113.09375 -190.296875 L 113.09375 -169.09375 Z M 68.234375 0 L 68.234375 -21.203125 L 89.171875 -21.203125 L 89.171875 0 Z M 68.234375 -24.1875 L 68.234375 -45.390625 L 89.171875 -45.390625 L 89.171875 -24.1875 Z M 68.234375 -72.578125 L 68.234375 -93.78125 L 89.171875 -93.78125 L 89.171875 -72.578125 Z M 68.234375 -96.5 L 68.234375 -117.703125 L 89.171875 -117.703125 L 89.171875 -96.5 Z M 68.234375 -144.890625 L 68.234375 -166.09375 L 89.171875 -166.09375 L 89.171875 -144.890625 Z M 68.234375 -169.09375 L 68.234375 -190.296875 L 89.171875 -190.296875 L 89.171875 -169.09375 Z M 44.578125 0 L 44.578125 -21.203125 L 65.515625 -21.203125 L 65.515625 0 Z M 44.578125 -24.1875 L 44.578125 -45.390625 L 65.515625 -45.390625 L 65.515625 -24.1875 Z M 44.578125 -72.578125 L 44.578125 -93.78125 L 65.515625 -93.78125 L 65.515625 -72.578125 Z M 44.578125 -96.5 L 44.578125 -117.703125 L 65.515625 -117.703125 L 65.515625 -96.5 Z M 44.578125 -120.703125 L 44.578125 -141.90625 L 65.515625 -141.90625 L 65.515625 -120.703125 Z M 44.578125 -144.890625 L 44.578125 -166.09375 L 65.515625 -166.09375 L 65.515625 -144.890625 Z M 44.578125 -169.09375 L 44.578125 -190.296875 L 65.515625 -190.296875 L 65.515625 -169.09375 Z M 20.65625 0 L 20.65625 -21.203125 L 41.59375 -21.203125 L 41.59375 0 Z M 20.65625 -24.1875 L 20.65625 -45.390625 L 41.59375 -45.390625 L 41.59375 -24.1875 Z M 20.65625 -72.578125 L 20.65625 -93.78125 L 41.59375 -93.78125 L 41.59375 -72.578125 Z M 20.65625 -96.5 L 20.65625 -117.703125 L 41.59375 -117.703125 L 41.59375 -96.5 Z M 20.65625 -120.703125 L 20.65625 -141.90625 L 41.59375 -141.90625 L 41.59375 -120.703125 Z M 20.65625 -144.890625 L 20.65625 -166.09375 L 41.59375 -166.09375 L 41.59375 -144.890625 Z M 20.65625 -144.890625 "/></g></g><g style="fill:#bdadad;fill-opacity:1;"><g transform="translate(245.463695, 345.66309)"><path style="stroke:none" d="M 61.5 0 L 61.5 -15.328125 L 76.625 -15.328125 L 76.625 0 Z M 61.5 -17.484375 L 61.5 -32.8125 L 76.625 -32.8125 L 76.625 -17.484375 Z M 61.5 -34.96875 L 61.5 -50.296875 L 76.625 -50.296875 L 76.625 -34.96875 Z M 61.5 -52.453125 L 61.5 -67.78125 L 76.625 -67.78125 L 76.625 -52.453125 Z M 61.5 -69.75 L 61.5 -85.078125 L 76.625 -85.078125 L 76.625 -69.75 Z M 61.5 -87.234375 L 61.5 -102.5625 L 76.625 -102.5625 L 76.625 -87.234375 Z M 61.5 -104.71875 L 61.5 -120.046875 L 76.625 -120.046875 L 76.625 -104.71875 Z M 61.5 -122.203125 L 61.5 -137.53125 L 76.625 -137.53125 L 76.625 -122.203125 Z M 44.203125 0 L 44.203125 -15.328125 L 59.328125 -15.328125 L 59.328125 0 Z M 44.203125 -17.484375 L 44.203125 -32.8125 L 59.328125 -32.8125 L 59.328125 -17.484375 Z M 44.203125 -34.96875 L 44.203125 -50.296875 L 59.328125 -50.296875 L 59.328125 -34.96875 Z M 44.203125 -52.453125 L 44.203125 -67.78125 L 59.328125 -67.78125 L 59.328125 -52.453125 Z M 44.203125 -69.75 L 44.203125 -85.078125 L 59.328125 -85.078125 L 59.328125 -69.75 Z M 44.203125 -87.234375 L 44.203125 -102.5625 L 59.328125 -102.5625 L 59.328125 -87.234375 Z M 44.203125 -104.71875 L 44.203125 -120.046875 L 59.328125 -120.046875 L 59.328125 -104.71875 Z M 44.203125 -122.203125 L 44.203125 -137.53125 L 59.328125 -137.53125 L 59.328125 -122.203125 Z M 27.109375 -104.71875 L 27.109375 -120.046875 L 42.234375 -120.046875 L 42.234375 -104.71875 Z M 27.109375 -122.203125 L 27.109375 -137.53125 L 42.234375 -137.53125 L 42.234375 -122.203125 Z M 9.828125 -104.71875 L 9.828125 -120.046875 L 24.953125 -120.046875 L 24.953125 -104.71875 Z M 9.828125 -122.203125 L 9.828125 -137.53125 L 24.953125 -137.53125 L 24.953125 -122.203125 Z M 9.828125 -122.203125 "/></g></g></g></svg>